<svg viewBox="0 0 1440 600" xmlns="http://www.w3.org/2000/svg">
  <defs>
    <linearGradient id="crmBg" x1="0%" y1="0%" x2="100%" y2="100%">
      <stop offset="0%" style="stop-color:#0d0d1a"/>
      <stop offset="100%" style="stop-color:#1a0a2e"/>
    </linearGradient>
    <linearGradient id="crmAccent" x1="0%" y1="0%" x2="100%" y2="0%">
      <stop offset="0%" style="stop-color:#a855f7"/>
      <stop offset="100%" style="stop-color:#6366f1"/>
    </linearGradient>
    <filter id="glow">
      <feGaussianBlur stdDeviation="3" result="coloredBlur"/>
      <feMerge><feMergeNode in="coloredBlur"/><feMergeNode in="SourceGraphic"/></feMerge>
    </filter>
  </defs>

  <!-- Background -->
  <rect width="1440" height="600" fill="url(#crmBg)"/>

  <!-- Left: Text Panel -->
  <rect x="0" y="0" width="580" height="600" fill="#0a0a14" opacity="0.6"/>

  <!-- Accent bar -->
  <rect x="0" y="0" width="6" height="600" fill="url(#crmAccent)"/>

  <!-- Category label -->
  <rect x="60" y="185" width="160" height="30" rx="15" fill="#7c3aed" opacity="0.3"/>
  <text x="75" y="206" font-family="Arial, sans-serif" font-size="13" fill="#c4b5fd" font-weight="bold" letter-spacing="2">CRM · 客戶關係管理</text>

  <!-- Title -->
  <text x="60" y="290" font-family="Arial, sans-serif" font-size="64" fill="#ffffff" font-weight="bold">
    <tspan fill="#ffffff">專業 CRM</tspan>
  </text>
  <text x="60" y="360" font-family="Arial, sans-serif" font-size="64" fill="#a78bfa" font-weight="bold">
    <tspan fill="#a78bfa">&amp;</tspan>
    <tspan fill="#ffffff"> ERP 方案</tspan>
  </text>

  <!-- Subtitle -->
  <text x="60" y="415" font-family="Arial, sans-serif" font-size="20" fill="#94a3b8">
    整合客戶資料、销售管道、電子會員與智能分析
  </text>
  <text x="60" y="443" font-family="Arial, sans-serif" font-size="20" fill="#94a3b8">
    為餐飲及零售業打造的全方位商業管理系統
  </text>

  <!-- CTA Button -->
  <rect x="60" y="480" width="200" height="52" rx="26" fill="#7c3aed"/>
  <text x="110" y="514" font-family="Arial, sans-serif" font-size="16" fill="#ffffff" font-weight="bold" text-anchor="middle">了解更多 →</text>

  <!-- Decorative line -->
  <line x1="60" y1="250" x2="140" y2="250" stroke="#7c3aed" stroke-width="3" opacity="0.7"/>

  <!-- Right: Dashboard Panel -->
  <!-- Main dashboard card -->
  <rect x="640" y="80" width="730" height="440" rx="16" fill="#12122a" stroke="#6366f1" stroke-width="1" opacity="0.95"/>

  <!-- Dashboard header bar -->
  <rect x="640" y="80" width="730" height="50" rx="16" fill="#1e1b4b"/>
  <rect x="640" y="114" width="730" height="16" fill="#1e1b4b"/>
  <circle cx="668" cy="105" r="6" fill="#ef4444"/>
  <circle cx="688" cy="105" r="6" fill="#f59e0b"/>
  <circle cx="708" cy="105" r="6" fill="#22c55e"/>
  <text x="1080" y="110" font-family="Arial, sans-serif" font-size="13" fill="#94a3b8" text-anchor="middle">Customer Relationship Dashboard</text>

  <!-- Left sidebar in dashboard -->
  <rect x="660" y="148" width="180" height="354" rx="10" fill="#0f0d24"/>

  <!-- Sidebar nav items -->
  <rect x="670" y="160" width="160" height="34" rx="8" fill="#7c3aed" opacity="0.8"/>
  <text x="700" y="182" font-family="Arial, sans-serif" font-size="12" fill="#ffffff" font-weight="bold">👤 客戶資料</text>

  <rect x="670" y="202" width="160" height="34" rx="8" fill="#1e1b4b"/>
  <text x="700" y="224" font-family="Arial, sans-serif" font-size="12" fill="#94a3b8">📊 銷售分析</text>

  <rect x="670" y="244" width="160" height="34" rx="8" fill="#1e1b4b"/>
  <text x="700" y="266" font-family="Arial, sans-serif" font-size="12" fill="#94a3b8">🎁 電子會員</text>

  <rect x="670" y="286" width="160" height="34" rx="8" fill="#1e1b4b"/>
  <text x="700" y="308" font-family="Arial, sans-serif" font-size="12" fill="#94a3b8">💬 訊息中心</text>

  <rect x="670" y="328" width="160" height="34" rx="8" fill="#1e1b4b"/>
  <text x="700" y="350" font-family="Arial, sans-serif" font-size="12" fill="#94a3b8">📈 智能報告</text>

  <rect x="670" y="370" width="160" height="34" rx="8" fill="#1e1b4b"/>
  <text x="700" y="392" font-family="Arial, sans-serif" font-size="12" fill="#94a3b8">⚙️ 系統設定</text>

  <!-- Customer count card -->
  <rect x="660" y="414" width="180" height="88" rx="10" fill="#1e1b4b"/>
  <text x="675" y="438" font-family="Arial, sans-serif" font-size="11" fill="#94a3b8">總會員</text>
  <text x="675" y="470" font-family="Arial, sans-serif" font-size="32" fill="#ffffff" font-weight="bold">12,847</text>
  <text x="750" y="470" font-family="Arial, sans-serif" font-size="14" fill="#22c55e">↑ 18%</text>

  <!-- Main content area -->
  <!-- KPI cards row -->
  <rect x="858" y="148" width="240" height="100" rx="10" fill="#1e1b4b"/>
  <text x="873" y="172" font-family="Arial, sans-serif" font-size="11" fill="#94a3b8">本月新增會員</text>
  <text x="873" y="212" font-family="Arial, sans-serif" font-size="30" fill="#ffffff" font-weight="bold">2,394</text>
  <text x="973" y="212" font-family="Arial, sans-serif" font-size="13" fill="#22c55e">↑ 23%</text>
  <rect x="873" y="228" width="200" height="6" rx="3" fill="#1a0533"/>
  <rect x="873" y="228" width="140" height="6" rx="3" fill="#7c3aed"/>

  <rect x="1116" y="148" width="240" height="100" rx="10" fill="#1e1b4b"/>
  <text x="1131" y="172" font-family="Arial, sans-serif" font-size="11" fill="#94a3b8">活躍會員比率</text>
  <text x="1131" y="212" font-family="Arial, sans-serif" font-size="30" fill="#ffffff" font-weight="bold">78.5%</text>
  <text x="1213" y="212" font-family="Arial, sans-serif" font-size="13" fill="#22c55e">↑ 5.2%</text>
  <rect x="1131" y="228" width="200" height="6" rx="3" fill="#1a0533"/>
  <rect x="1131" y="228" width="157" height="6" rx="3" fill="#a855f7"/>

  <!-- Chart area -->
  <rect x="858" y="262" width="498" height="160" rx="10" fill="#1e1b4b"/>
  <text x="873" y="288" font-family="Arial, sans-serif" font-size="12" fill="#94a3b8">每月會員增長趨勢</text>

  <!-- Bar chart -->
  <rect x="885" y="380" width="28" height="28" rx="4" fill="#6366f1" opacity="0.5"/>
  <rect x="885" y="355" width="28" height="25" rx="4" fill="#6366f1" opacity="0.7"/>
  <rect x="885" y="320" width="28" height="35" rx="4" fill="#6366f1"/>

  <rect x="925" y="375" width="28" height="33" rx="4" fill="#7c3aed" opacity="0.5"/>
  <rect x="925" y="345" width="28" height="30" rx="4" fill="#7c3aed" opacity="0.7"/>
  <rect x="925" y="305" width="28" height="40" rx="4" fill="#7c3aed"/>

  <rect x="965" y="370" width="28" height="38" rx="4" fill="#a855f7" opacity="0.5"/>
  <rect x="965" y="335" width="28" height="35" rx="4" fill="#a855f7" opacity="0.7"/>
  <rect x="965" y="295" width="28" height="40" rx="4" fill="#a855f7"/>

  <rect x="1005" y="360" width="28" height="48" rx="4" fill="#6366f1" opacity="0.5"/>
  <rect x="1005" y="325" width="28" height="35" rx="4" fill="#6366f1" opacity="0.7"/>
  <rect x="1005" y="280" width="28" height="45" rx="4" fill="#6366f1"/>

  <rect x="1045" y="365" width="28" height="43" rx="4" fill="#7c3aed" opacity="0.5"/>
  <rect x="1045" y="335" width="28" height="30" rx="4" fill="#7c3aed" opacity="0.7"/>
  <rect x="1045" y="288" width="28" height="47" rx="4" fill="#7c3aed"/>

  <rect x="1085" y="358" width="28" height="50" rx="4" fill="#a855f7" opacity="0.5"/>
  <rect x="1085" y="320" width="28" height="38" rx="4" fill="#a855f7" opacity="0.7"/>
  <rect x="1085" y="275" width="28" height="45" rx="4" fill="#a855f7"/>

  <rect x="1125" y="350" width="28" height="58" rx="4" fill="#6366f1" opacity="0.5"/>
  <rect x="1125" y="310" width="28" height="40" rx="4" fill="#6366f1" opacity="0.7"/>
  <rect x="1125" y="268" width="28" height="42" rx="4" fill="#6366f1"/>

  <rect x="1165" y="340" width="28" height="68" rx="4" fill="#7c3aed" opacity="0.5"/>
  <rect x="1165" y="295" width="28" height="45" rx="4" fill="#7c3aed" opacity="0.7"/>
  <rect x="1165" y="260" width="28" height="35" rx="4" fill="#7c3aed"/>

  <!-- X-axis labels -->
  <text x="899" y="415" font-family="Arial, sans-serif" font-size="9" fill="#64748b" text-anchor="middle">Jan</text>
  <text x="939" y="415" font-family="Arial, sans-serif" font-size="9" fill="#64748b" text-anchor="middle">Feb</text>
  <text x="979" y="415" font-family="Arial, sans-serif" font-size="9" fill="#64748b" text-anchor="middle">Mar</text>
  <text x="1019" y="415" font-family="Arial, sans-serif" font-size="9" fill="#64748b" text-anchor="middle">Apr</text>
  <text x="1059" y="415" font-family="Arial, sans-serif" font-size="9" fill="#64748b" text-anchor="middle">May</text>
  <text x="1099" y="415" font-family="Arial, sans-serif" font-size="9" fill="#64748b" text-anchor="middle">Jun</text>
  <text x="1139" y="415" font-family="Arial, sans-serif" font-size="9" fill="#64748b" text-anchor="middle">Jul</text>
  <text x="1179" y="415" font-family="Arial, sans-serif" font-size="9" fill="#64748b" text-anchor="middle">Aug</text>

  <!-- Pie chart -->
  <circle cx="1280" cy="360" r="55" fill="none" stroke="#1e1b4b" stroke-width="18"/>
  <circle cx="1280" cy="360" r="55" fill="none" stroke="#7c3aed" stroke-width="18" stroke-dasharray="200 346" stroke-dashoffset="0" transform="rotate(-90 1280 360)"/>
  <circle cx="1280" cy="360" r="55" fill="none" stroke="#a855f7" stroke-width="18" stroke-dasharray="87 346" stroke-dashoffset="-200" transform="rotate(-90 1280 360)"/>
  <circle cx="1280" cy="360" r="55" fill="none" stroke="#6366f1" stroke-width="18" stroke-dasharray="59 346" stroke-dashoffset="-287" transform="rotate(-90 1280 360)"/>
  <text x="1280" y="356" font-family="Arial, sans-serif" font-size="18" fill="#ffffff" text-anchor="middle" font-weight="bold">87%</text>
  <text x="1280" y="372" font-family="Arial, sans-serif" font-size="10" fill="#94a3b8" text-anchor="middle">活躍率</text>

  <!-- Bottom KPI cards -->
  <rect x="858" y="436" width="155" height="76" rx="10" fill="#1e1b4b"/>
  <text x="873" y="458" font-family="Arial, sans-serif" font-size="11" fill="#94a3b8">顧客滿意度</text>
  <text x="873" y="488" font-family="Arial, sans-serif" font-size="24" fill="#ffffff" font-weight="bold">4.8</text>
  <text x="918" y="488" font-family="Arial, sans-serif" font-size="14" fill="#f59e0b">★★★★★</text>

  <rect x="1025" y="436" width="155" height="76" rx="10" fill="#1e1b4b"/>
  <text x="1040" y="458" font-family="Arial, sans-serif" font-size="11" fill="#94a3b8">回購率</text>
  <text x="1040" y="488" font-family="Arial, sans-serif" font-size="24" fill="#ffffff" font-weight="bold">62%</text>
  <text x="1085" y="488" font-family="Arial, sans-serif" font-size="13" fill="#22c55e">↑ 8%</text>

  <rect x="1192" y="436" width="164" height="76" rx="10" fill="#1e1b4b"/>
  <text x="1207" y="458" font-family="Arial, sans-serif" font-size="11" fill="#94a3b8">平均消費</text>
  <text x="1207" y="488" font-family="Arial, sans-serif" font-size="24" fill="#ffffff" font-weight="bold">HK$842</text>
  <text x="1290" y="488" font-family="Arial, sans-serif" font-size="13" fill="#22c55e">↑ 12%</text>

  <!-- Window control dots overlay -->
  <circle cx="1370" cy="105" r="5" fill="#ef4444"/>
  <circle cx="1350" cy="105" r="5" fill="#f59e0b"/>
  <circle cx="1330" cy="105" r="5" fill="#22c55e"/>

  <!-- Bottom right decorative text -->
  <text x="1380" y="560" font-family="Arial, sans-serif" font-size="11" fill="#4b5563" text-anchor="end">AH Solutions Limited</text>
</svg>
