<svg viewBox="0 0 1440 600" xmlns="http://www.w3.org/2000/svg">
  <defs>
    <linearGradient id="erpBg" x1="0%" y1="0%" x2="100%" y2="100%">
      <stop offset="0%" style="stop-color:#0a0a14"/>
      <stop offset="100%" style="stop-color:#0d1f0d"/>
    </linearGradient>
    <linearGradient id="erpAccent" x1="0%" y1="0%" x2="100%" y2="0%">
      <stop offset="0%" style="stop-color:#f97316"/>
      <stop offset="100%" style="stop-color:#22c55e"/>
    </linearGradient>
  </defs>
  <rect width="1440" height="600" fill="url(#erpBg)"/>
  <rect x="0" y="0" width="580" height="600" fill="#050508" opacity="0.7"/>
  <rect x="0" y="0" width="6" height="600" fill="url(#erpAccent)"/>
  <rect x="60" y="185" width="180" height="30" rx="15" fill="#f97316" opacity="0.25"/>
  <text x="75" y="206" font-family="Arial, sans-serif" font-size="13" fill="#fed7aa" font-weight="bold" letter-spacing="2">ERP · 企業資源規劃</text>
  <line x1="60" y1="250" x2="160" y2="250" stroke="#f97316" stroke-width="3" opacity="0.7"/>
  <text x="60" y="295" font-family="Arial, sans-serif" font-size="58" fill="#ffffff" font-weight="bold">強大 ERP</text>
  <text x="60" y="358" font-family="Arial, sans-serif" font-size="58" fill="#22c55e" font-weight="bold">Odoo 旗艦平台</text>
  <text x="60" y="415" font-family="Arial, sans-serif" font-size="20" fill="#94a3b8">整合採購、庫存、銷售、財務與人力資源</text>
  <text x="60" y="443" font-family="Arial, sans-serif" font-size="20" fill="#94a3b8">靈活擴展 · 智能管理 · 助力業務增長</text>
  <rect x="60" y="480" width="200" height="52" rx="26" fill="#f97316"/>
  <text x="110" y="514" font-family="Arial, sans-serif" font-size="16" fill="#ffffff" font-weight="bold" text-anchor="middle">了解更多 →</text>
  <rect x="620" y="60" width="760" height="480" rx="16" fill="#0d1a0d"/>
  <rect x="620" y="60" width="760" height="50" rx="16" fill="#142614"/>
  <rect x="620" y="94" width="760" height="16" fill="#142614"/>
  <circle cx="648" cy="85" r="6" fill="#ef4444"/>
  <circle cx="668" cy="85" r="6" fill="#f59e0b"/>
  <circle cx="688" cy="85" r="6" fill="#22c55e"/>
  <text x="1000" y="90" font-family="Arial, sans-serif" font-size="13" fill="#94a3b8" text-anchor="middle">ERP Dashboard — Odoo Platform</text>
  <rect x="648" y="130" width="200" height="392" rx="10" fill="#081208"/>
  <rect x="658" y="142" width="180" height="34" rx="8" fill="#15803d" opacity="0.8"/>
  <text x="688" y="164" font-family="Arial, sans-serif" font-size="12" fill="#ffffff" font-weight="bold">📦 採購管理</text>
  <rect x="658" y="184" width="180" height="34" rx="8" fill="#142614"/>
  <text x="688" y="206" font-family="Arial, sans-serif" font-size="12" fill="#94a3b8">📊 銷售分析</text>
  <rect x="658" y="226" width="180" height="34" rx="8" fill="#142614"/>
  <text x="688" y="248" font-family="Arial, sans-serif" font-size="12" fill="#94a3b8">💰 財務管理</text>
  <rect x="658" y="268" width="180" height="34" rx="8" fill="#142614"/>
  <text x="688" y="290" font-family="Arial, sans-serif" font-size="12" fill="#94a3b8">👥 人力資源</text>
  <rect x="658" y="310" width="180" height="34" rx="8" fill="#142614"/>
  <text x="688" y="332" font-family="Arial, sans-serif" font-size="12" fill="#94a3b8">📈 報表中心</text>
  <rect x="658" y="352" width="180" height="34" rx="8" fill="#142614"/>
  <text x="688" y="374" font-family="Arial, sans-serif" font-size="12" fill="#94a3b8">⚙️ 系統設定</text>
  <rect x="648" y="396" width="200" height="126" rx="10" fill="#142614"/>
  <text x="663" y="422" font-family="Arial, sans-serif" font-size="11" fill="#94a3b8">本月毛利潤</text>
  <text x="663" y="458" font-family="Arial, sans-serif" font-size="28" fill="#ffffff" font-weight="bold">HK$1.28M</text>
  <text x="763" y="458" font-family="Arial, sans-serif" font-size="14" fill="#22c55e">↑ 18%</text>
  <rect x="870" y="130" width="250" height="108" rx="10" fill="#142614"/>
  <text x="885" y="156" font-family="Arial, sans-serif" font-size="11" fill="#94a3b8">月銷售額</text>
  <text x="885" y="200" font-family="Arial, sans-serif" font-size="30" fill="#ffffff" font-weight="bold">HK$4.85M</text>
  <text x="1005" y="200" font-family="Arial, sans-serif" font-size="13" fill="#22c55e">↑ 12%</text>
  <rect x="885" y="214" width="210" height="6" rx="3" fill="#081208"/>
  <rect x="885" y="214" width="145" height="6" rx="3" fill="#f97316"/>
  <rect x="1140" y="130" width="228" height="108" rx="10" fill="#142614"/>
  <text x="1155" y="156" font-family="Arial, sans-serif" font-size="11" fill="#94a3b8">庫存周轉率</text>
  <text x="1155" y="200" font-family="Arial, sans-serif" font-size="30" fill="#ffffff" font-weight="bold">8.4x</text>
  <text x="1230" y="200" font-family="Arial, sans-serif" font-size="13" fill="#22c55e">↑ 0.6x</text>
  <rect x="870" y="252" width="498" height="160" rx="10" fill="#142614"/>
  <text x="885" y="278" font-family="Arial, sans-serif" font-size="12" fill="#94a3b8">每月銷售額趨勢</text>
  <rect x="885" y="380" width="28" height="18" rx="4" fill="#f97316" opacity="0.4"/>
  <rect x="885" y="365" width="28" height="15" rx="4" fill="#f97316" opacity="0.6"/>
  <rect x="885" y="345" width="28" height="20" rx="4" fill="#f97316" opacity="0.8"/>
  <rect x="885" y="318" width="28" height="27" rx="4" fill="#f97316"/>
  <rect x="925" y="378" width="28" height="20" rx="4" fill="#22c55e" opacity="0.4"/>
  <rect x="925" y="362" width="28" height="16" rx="4" fill="#22c55e" opacity="0.6"/>
  <rect x="925" y="338" width="28" height="24" rx="4" fill="#22c55e" opacity="0.8"/>
  <rect x="925" y="310" width="28" height="28" rx="4" fill="#22c55e"/>
  <rect x="965" y="375" width="28" height="23" rx="4" fill="#f97316" opacity="0.4"/>
  <rect x="965" y="358" width="28" height="17" rx="4" fill="#f97316" opacity="0.6"/>
  <rect x="965" y="332" width="28" height="26" rx="4" fill="#f97316" opacity="0.8"/>
  <rect x="965" y="303" width="28" height="29" rx="4" fill="#f97316"/>
  <rect x="1005" y="370" width="28" height="28" rx="4" fill="#22c55e" opacity="0.4"/>
  <rect x="1005" y="352" width="28" height="18" rx="4" fill="#22c55e" opacity="0.6"/>
  <rect x="1005" y="328" width="28" height="24" rx="4" fill="#22c55e" opacity="0.8"/>
  <rect x="1005" y="298" width="28" height="30" rx="4" fill="#22c55e"/>
  <rect x="1045" y="365" width="28" height="33" rx="4" fill="#f97316" opacity="0.4"/>
  <rect x="1045" y="348" width="28" height="17" rx="4" fill="#f97316" opacity="0.6"/>
  <rect x="1045" y="322" width="28" height="26" rx="4" fill="#f97316" opacity="0.8"/>
  <rect x="1045" y="293" width="28" height="29" rx="4" fill="#f97316"/>
  <rect x="1085" y="360" width="28" height="38" rx="4" fill="#22c55e" opacity="0.4"/>
  <rect x="1085" y="340" width="28" height="20" rx="4" fill="#22c55e" opacity="0.6"/>
  <rect x="1085" y="315" width="28" height="25" rx="4" fill="#22c55e" opacity="0.8"/>
  <rect x="1085" y="288" width="28" height="27" rx="4" fill="#22c55e"/>
  <rect x="1125" y="352" width="28" height="46" rx="4" fill="#f97316" opacity="0.4"/>
  <rect x="1125" y="332" width="28" height="20" rx="4" fill="#f97316" opacity="0.6"/>
  <rect x="1125" y="308" width="28" height="24" rx="4" fill="#f97316" opacity="0.8"/>
  <rect x="1125" y="280" width="28" height="28" rx="4" fill="#f97316"/>
  <rect x="1165" y="345" width="28" height="53" rx="4" fill="#22c55e" opacity="0.4"/>
  <rect x="1165" y="322" width="28" height="23" rx="4" fill="#22c55e" opacity="0.6"/>
  <rect x="1165" y="300" width="28" height="22" rx="4" fill="#22c55e" opacity="0.8"/>
  <rect x="1165" y="273" width="28" height="27" rx="4" fill="#22c55e"/>
  <text x="899" y="415" font-family="Arial, sans-serif" font-size="9" fill="#64748b" text-anchor="middle">Jan</text>
  <text x="939" y="415" font-family="Arial, sans-serif" font-size="9" fill="#64748b" text-anchor="middle">Feb</text>
  <text x="979" y="415" font-family="Arial, sans-serif" font-size="9" fill="#64748b" text-anchor="middle">Mar</text>
  <text x="1019" y="415" font-family="Arial, sans-serif" font-size="9" fill="#64748b" text-anchor="middle">Apr</text>
  <text x="1059" y="415" font-family="Arial, sans-serif" font-size="9" fill="#64748b" text-anchor="middle">May</text>
  <text x="1099" y="415" font-family="Arial, sans-serif" font-size="9" fill="#64748b" text-anchor="middle">Jun</text>
  <text x="1139" y="415" font-family="Arial, sans-serif" font-size="9" fill="#64748b" text-anchor="middle">Jul</text>
  <text x="1179" y="415" font-family="Arial, sans-serif" font-size="9" fill="#64748b" text-anchor="middle">Aug</text>
  <rect x="870" y="426" width="250" height="96" rx="10" fill="#142614"/>
  <text x="885" y="452" font-family="Arial, sans-serif" font-size="11" fill="#94a3b8">人力資源</text>
  <text x="885" y="485" font-family="Arial, sans-serif" font-size="24" fill="#ffffff" font-weight="bold">128 名員工</text>
  <rect x="885" y="495" width="210" height="8" rx="4" fill="#081208"/>
  <rect x="885" y="495" width="55" height="8" rx="4" fill="#ef4444"/>
  <rect x="950" y="495" width="60" height="8" rx="4" fill="#f59e0b"/>
  <rect x="1018" y="495" width="77" height="8" rx="4" fill="#22c55e"/>
  <rect x="1140" y="426" width="228" height="96" rx="10" fill="#142614"/>
  <text x="1155" y="452" font-family="Arial, sans-serif" font-size="11" fill="#94a3b8">Odoo ERP</text>
  <text x="1155" y="485" font-family="Arial, sans-serif" font-size="20" fill="#ffffff" font-weight="bold">旗艦版用戶</text>
  <text x="1155" y="510" font-family="Arial, sans-serif" font-size="13" fill="#22c55e">已集成 8 個模組</text>
  <circle cx="1370" cy="85" r="5" fill="#ef4444"/>
  <circle cx="1350" cy="85" r="5" fill="#f59e0b"/>
  <circle cx="1330" cy="85" r="5" fill="#22c55e"/>
  <text x="1380" y="560" font-family="Arial, sans-serif" font-size="11" fill="#4b5563" text-anchor="end">AH Solutions Limited</text>
</svg>
